<?xml version="1.0"?><svg version="1.2" baseProfile="tiny-ps" viewBox="0 0 155 155" xmlns="http://www.w3.org/2000/svg" xmlns:xlink="http://www.w3.org/1999/xlink"><title>Armaghan</title><g><g fill="#fdfefc" transform="matrix(.1 0 0 -.1 0 155)"><path d="M0 775V260h1550v1030H0V775z"/></g><g fill="#fcdaac" transform="matrix(.1 0 0 -.1 0 155)"><path d="M633 1145c-100-27-233-113-233-151v-13l33-6c17-3 70-9 116-15l84-10 43-25c48-28 75-61 99-123l17-42 8 5c4 3 11 16 14 31 4 14 18 43 31 64l25 39 44 26 44 26 93 10c52 5 104 12 117 15l22 4v14c0 37-125 119-229 150l-55 16-110-1H685l-52-14zm671-292c-3-10-14-40-26-68-11-27-21-59-22-70l-1-20 21-3 21-3 17 42c10 24 20 65 23 91l6 48h-34l-5-17zm-944-10c0-10 9-36 19-58l18-40 45-42c54-49 81-64 173-94l70-23h210l75 23c96 30 150 62 200 118l40 46 10 35 10 36-8 8-8 8-37-15c-20-8-48-15-63-15s-67-10-117-21l-90-21-42-39-43-40-13-30-12-31-18 34c-10 19-32 49-50 66l-33 33-51 15c-27 8-90 22-140 30-49 9-97 20-107 25-9 5-21 9-27 9h-11v-17zm802-155c-7-7-12-20-12-29 0-24-18-33-61-30l-37 2-21-27-22-28-62-13-62-13H504l-47-16-48-16-30-30c-16-17-39-48-50-70l-21-40 9-9 9-9 45 16 44 17 245 7 245 7 79 27 79 27 53 35c29 20 76 60 104 91l50 55v17c0 9-5 22-12 29l-12 12h-72l-12-12z"/></g><g fill="#8dc3f0" transform="matrix(.1 0 0 -.1 0 155)"><path d="M643 1140c-91-24-144-51-199-102l-45-41 8-8c4-4 55-13 112-19l104-11 48-24 47-24 20-26c12-14 29-46 38-71l17-45 30 61 29 62 45 28 45 29 52 10c28 5 81 13 119 16l67 7v13c0 20-77 82-138 111-30 14-84 32-120 40l-67 14-70-1h-70l-72-19zm661-287c-3-10-14-40-26-68-11-27-21-59-22-70l-1-20 21-3 21-3 17 42c10 24 20 65 23 91l6 48h-34l-5-17zm-934-16c0-31 20-68 62-113l42-46 58-29c32-16 86-36 120-44l63-15h160l63 15c81 19 153 56 207 106l44 41 17 44c9 24 15 46 13 48s-29-2-59-9-86-18-125-25c-125-22-190-62-222-139l-15-34-29 51-29 51-42 25-43 25-75 16c-131 27-164 34-187 41l-23 6v-15zm792-149c-7-7-12-20-12-29 0-24-18-33-61-30l-37 2-21-27-22-28-62-13-62-13H504l-47-16-48-16-30-30c-16-17-39-48-50-70l-21-40 9-9 9-9 45 16 44 17 245 7 245 7 79 27 79 27 53 35c29 20 76 60 104 91l50 55v17c0 9-5 22-12 29l-12 12h-72l-12-12z"/></g><g fill="#efa355" transform="matrix(.1 0 0 -.1 0 155)"><path d="M643 1140c-91-24-144-51-199-102l-45-41 8-8c4-4 55-13 112-19l104-11 48-24 47-24 20-26c12-14 29-46 38-71l17-45 30 61 29 62 45 28 45 29 52 10c28 5 81 13 119 16l67 7v13c0 20-77 82-138 111-30 14-84 32-120 40l-67 14-70-1h-70l-72-19zm669-293c-7-16-12-33-12-39s-11-30-25-53l-24-42 6-7c3-3 14-6 23-6h16l18 49 17 49-3 39-4 38-12-28zm-942-10c0-31 20-68 62-113l42-46 58-29c32-16 86-36 120-44l63-15h160l63 15c81 19 153 56 207 106l44 41 17 44c9 24 15 46 13 48s-29-2-59-9-86-18-125-25c-125-22-190-62-222-139l-15-34-29 51-29 51-42 25-43 25-75 16c-131 27-164 34-187 41l-23 6v-15zm807-149c-9-7-21-25-26-40l-11-28h-90l-15-24-16-25-52-12-52-12-226-6-226-6-48-30-48-30-26-47-26-46 7-7 6-6 54 17 53 17 245 7 245 7 67 25c90 34 158 79 218 145l50 55v37l-19 11c-26 13-44 13-64-2z"/></g><g fill="#fd7f05" transform="matrix(.1 0 0 -.1 0 155)"><path d="m620 1126-75-22-40-26c-22-14-53-39-68-56l-29-30 29-5c15-3 57-9 93-12 36-4 86-13 112-21l47-15 40-39 40-39 12-41 13-42 21 48 22 49 33 32 33 32 46 15c25 9 78 18 116 21 39 4 81 8 94 11l24 5-33 34c-41 43-130 90-205 110l-59 15-96-1h-95l-75-23zm692-279c-7-16-12-33-12-39s-11-30-25-53l-24-42 6-7c3-3 14-6 23-6h16l18 49 17 49-3 39-4 38-12-28zm-932-33c31-81 90-135 198-179l63-26 78-10 78-9 69 10c95 13 157 33 217 70l52 32 33 40c29 37 50 84 41 92-2 2-66-9-141-24l-138-28-34-21c-36-23-61-54-86-110l-16-35-14 35c-7 18-24 49-38 68l-25 33-43 19c-40 18-86 29-199 49-27 4-62 11-78 15l-27 7 10-28zm797-126c-9-7-21-25-26-40l-11-28h-90l-15-24-16-25-52-12-52-12-226-6-226-6-48-30-48-30-26-47-26-46 7-7 6-6 54 17 53 17 245 7 245 7 67 25c90 34 158 79 218 145l50 55v37l-19 11c-26 13-44 13-64-2z"/></g><g fill="#0879f0" transform="matrix(.1 0 0 -.1 0 155)"><path d="M1312 847c-7-16-12-33-12-39s-11-30-25-53l-24-42 6-7c3-3 14-6 23-6h16l18 49 17 49-3 39-4 38-12-28zm-135-159c-9-7-21-25-26-40l-11-28h-90l-15-24-16-25-52-12-52-12-226-6-226-6-48-30-48-30-26-47-26-46 7-7 6-6 54 17 53 17 245 7 245 7 67 25c90 34 158 79 218 145l50 55v37l-19 11c-26 13-44 13-64-2z"/></g></g></svg>