<?xml version="1.0" encoding="UTF-8" standalone="yes"?>
<svg version="1.2" width="300.000000pt" height="300.000000pt" viewBox="0 0 300.000000 300.000000" preserveAspectRatio="xMidYMid meet" baseProfile="tiny-ps" xmlns="http://www.w3.org/2000/svg">
  <title>bimi-svg-tiny-12-ps</title>
  <g transform="translate(0.000000,300.000000) scale(0.100000,-0.100000)" fill="#000000" stroke="none">
    <path d="M1460 2834 c0 -3 7 -16 16 -30 9 -13 14 -27 10 -31 -3 -3 -6 -1 -6 5&#xA;0 7 -5 12 -11 12 -8 0 -8 -4 1 -14 18 -22 41 -9 31 17 -5 12 -8 26 -7 31 0 5&#xA;-7 10 -16 12 -10 1 -18 0 -18 -2z"/>
    <path d="M1506 2825 c-3 -8 -1 -15 4 -15 6 0 10 -16 10 -36 0 -31 2 -35 15&#xA;-24 13 11 19 7 17 -11 -1 -7 43 -3 57 5 6 4 8 13 5 21 -3 8 0 13 8 11 25 -3&#xA;37 -17 31 -33 -4 -11 -3 -14 5 -9 7 4 12 2 12 -3 0 -6 5 -11 10 -11 6 0 -2 21&#xA;-17 47 l-27 47 26 -19 c15 -11 28 -28 28 -37 0 -10 4 -18 10 -18 5 0 6 7 3 17&#xA;-4 11 -3 14 5 9 7 -4 12 -15 12 -24 0 -14 2 -14 9 -3 15 23 33 -24 35 -90 1&#xA;-32 5 -62 9 -65 3 -4 5 27 4 69 -2 42 0 74 3 71 3 -3 5 -11 5 -17 0 -5 6 -12&#xA;14 -15 9 -3 11 0 6 9 -7 12 -5 12 6 1 9 -8 15 -37 16 -75 2 -76 2 -77 13 -50&#xA;5 12 7 34 4 50 -3 21 -2 24 6 13 5 -8 10 -23 10 -33 0 -20 30 -80 43 -85 12&#xA;-6 47 -79 40 -86 -11 -11 -23 -6 -23 8 0 8 -9 18 -20 21 -11 3 -20 10 -20 14&#xA;0 3 -9 7 -19 7 -18 0 -18 -2 4 -22 57 -53 112 -190 98 -244 -3 -10 6 -43 20&#xA;-72 31 -66 35 -94 41 -282 5 -160 -10 -284 -38 -315 -20 -22 -40 -75 -25 -65&#xA;8 5 8 1 0 -14 -6 -11 -11 -32 -11 -47 0 -14 -7 -28 -15 -31 -13 -5 -13 -9 -3&#xA;-22 9 -11 9 -13 1 -9 -6 4 -14 3 -18 -3 -3 -5 -2 -10 3 -10 6 0 5 -10 -1 -24&#xA;-7 -13 -15 -22 -19 -20 -4 3 -5 -3 -1 -12 4 -12 3 -15 -5 -10 -7 4 -12 2 -12&#xA;-6 0 -7 -11 -26 -25 -41 -14 -15 -22 -27 -18 -27 4 0 0 -5 -10 -11 -9 -6 -15&#xA;-14 -12 -20 4 -5 1 -9 -6 -9 -7 0 -10 -3 -6 -6 9 -9 -101 -96 -112 -90 -5 4&#xA;-11 1 -13 -5 -2 -7 -39 -11 -100 -12 -78 -1 -101 3 -124 18 -16 10 -31 18 -34&#xA;18 -3 0 -17 8 -32 18 -14 10 -29 19 -32 19 -3 0 -14 8 -24 17 -10 10 -35 33&#xA;-55 51 -20 18 -37 37 -37 43 0 6 -4 7 -10 4 -5 -3 -10 1 -10 9 0 9 -4 16 -10&#xA;16 -5 0 -19 18 -30 40 -11 22 -18 40 -14 40 4 0 1 6 -5 13 -6 8 -8 17 -4 20 3&#xA;4 1 7 -5 7 -6 0 -14 15 -18 33 -10 40 -9 39 -17 57 -3 8 -9 31 -12 50 -9 53&#xA;-10 59 -19 67 -4 4 -6 -5 -3 -21 2 -18 -3 -37 -12 -47 -9 -10 -22 -25 -29 -33&#xA;-17 -21 -39 -20 -51 3 -9 16 -8 18 8 14 10 -3 22 0 25 6 4 6 0 11 -8 11 -9 0&#xA;-16 5 -16 10 0 6 4 10 10 10 5 0 7 7 3 16 -4 10 -8 12 -13 5 -4 -7 -11 4 -17&#xA;23 -11 35 -11 87 0 141 4 19 2 16 -7 -10 l-14 -40 -1 60 c-1 83 6 103 37 107&#xA;l26 3 -28 15 c-25 13 -29 13 -41 -4 -19 -26 -29 -156 -17 -213 6 -26 14 -73&#xA;18 -103 7 -61 26 -90 59 -90 23 0 55 28 55 48 0 7 5 12 10 12 6 0 10 -9 10&#xA;-19 0 -11 11 -50 24 -88 14 -37 28 -105 32 -150 l6 -82 -34 -33 c-20 -19 -39&#xA;-52 -47 -78 -21 -74 -47 -114 -79 -125 -16 -6 -35 -15 -43 -21 -8 -7 -68 -39&#xA;-134 -72 -113 -56 -224 -102 -425 -174 -47 -17 -106 -41 -131 -53 -41 -21&#xA;-212 -165 -249 -210 -14 -17 -13 -17 10 -10 38 12 70 36 70 51 0 8 10 14 26&#xA;14 14 0 23 4 19 10 -3 5 -1 10 4 10 6 0 11 7 11 16 0 8 4 13 9 10 4 -3 16 3&#xA;26 14 10 11 23 20 30 20 7 0 20 9 30 20 10 11 23 20 28 20 6 0 18 7 28 16 19&#xA;17 79 28 79 14 0 -12 -34 -22 -53 -14 -11 4 -15 0 -13 -13 3 -20 -53 -85 -66&#xA;-77 -5 3 -7 2 -6 -3 1 -4 -3 -18 -10 -31 -14 -24 -40 -26 -58 -3 -8 10 -13 11&#xA;-18 3 -4 -6 6 -17 22 -26 27 -14 30 -13 50 7 12 12 22 16 22 10 0 -6 -12 -21&#xA;-26 -32 -15 -12 -22 -21 -17 -21 11 0 73 63 73 74 0 5 -7 3 -15 -4 -34 -28&#xA;-12 9 29 49 28 28 49 41 57 36 7 -5 10 -4 5 3 -3 6 7 19 24 28 16 10 30 22 30&#xA;27 0 4 -5 5 -10 2 -16 -10 -11 1 7 16 10 8 14 9 10 2 -10 -17 9 -25 30 -14 10&#xA;6 61 24 113 40 52 16 87 30 78 30 -9 1 -29 -4 -43 -9 -16 -6 -33 -7 -42 -1&#xA;-12 6 -3 11 34 16 29 4 60 15 72 26 20 18 21 19 22 2 0 -10 3 -13 5 -6 7 16&#xA;99 63 124 63 12 0 19 4 16 9 -9 14 40 31 53 18 9 -9 10 -8 5 7 -6 15 -4 18 9&#xA;13 11 -4 14 -2 11 7 -4 9 3 13 21 10 15 -1 24 0 21 3 -3 4 3 13 15 21 11 8 23&#xA;11 26 8 4 -3 21 10 39 29 21 23 34 31 37 23 3 -8 6 -5 6 6 1 11 8 27 16 36 8&#xA;9 16 36 18 58 1 23 5 42 10 42 4 0 7 -5 7 -10 0 -6 16 -25 35 -43 19 -17 35&#xA;-37 35 -43 0 -6 11 -16 25 -22 14 -6 25 -16 25 -22 0 -5 5 -10 12 -10 6 0 26&#xA;-11 44 -25 18 -14 36 -25 41 -25 5 0 16 -8 25 -17 32 -34 103 -80 166 -107 23&#xA;-11 42 -23 42 -28 0 -5 5 -6 10 -3 16 10 12 -7 -11 -45 l-20 -35 35 40 c26 30&#xA;35 35 36 22 0 -10 5 -15 10 -12 19 12 23 -26 5 -46 -18 -19 -18 -20 1 -34 10&#xA;-8 22 -15 27 -15 4 0 7 -5 7 -11 0 -8 -5 -8 -15 1 -8 7 -15 9 -15 5 0 -4 -7&#xA;-2 -16 6 -13 11 -19 8 -42 -22 -14 -19 -45 -53 -68 -76 -39 -37 -45 -53 -22&#xA;-53 4 0 8 5 8 11 0 6 14 24 31 40 26 24 34 27 49 16 9 -6 18 -16 19 -22 1 -5&#xA;16 -30 32 -55 17 -25 28 -37 25 -27 -3 11 -9 31 -12 45 -4 24 -2 22 15 -8 10&#xA;-19 22 -58 25 -85 6 -49 6 -49 -7 -17 -7 18 -16 30 -19 26 -4 -3 -1 -21 7 -39&#xA;8 -20 11 -50 8 -77 -11 -83 16 -26 33 72 9 52 20 97 25 100 5 3 -6 14 -24 24&#xA;-73 42 -137 127 -94 126 55 -1 182 -67 215 -112 7 -10 17 -18 22 -18 12 0 -20&#xA;63 -38 74 -12 7 -12 10 -1 17 24 15 -3 42 -80 80 -65 33 -71 38 -50 44 71 23&#xA;131 -7 149 -74 7 -24 22 -44 47 -61 97 -65 94 -63 87 -47 -3 9 -21 28 -40 42&#xA;-55 42 -134 143 -128 163 4 10 3 13 -3 6 -7 -11 -59 -12 -69 -2 -2 2 10 20 26&#xA;39 16 19 29 39 30 44 0 6 16 37 35 70 l34 60 7 -32 c4 -21 11 -30 20 -26 8 3&#xA;14 0 14 -6 0 -14 70 -43 87 -36 8 2 11 0 8 -5 -3 -6 2 -11 12 -12 10 0 23 -2&#xA;28 -3 6 -1 28 -5 50 -9 47 -9 207 -57 203 -62 -2 -1 -28 3 -58 10 -52 12 -187&#xA;30 -165 22 6 -2 55 -14 110 -27 99 -22 215 -71 215 -90 0 -6 14 -15 30 -20 17&#xA;-6 30 -16 30 -23 0 -6 14 -26 30 -45 17 -18 28 -37 25 -42 -4 -5 -2 -9 3 -9&#xA;13 0 40 -67 48 -120 4 -25 8 -47 9 -50 1 -3 5 -23 9 -45 4 -22 12 -55 18 -72&#xA;5 -18 11 -51 12 -73 5 -59 16 -62 17 -4 l1 49 14 -55 c8 -30 12 -72 9 -92 -5&#xA;-38 -5 -38 30 -38 l35 0 -36 98 c-60 163 -63 174 -77 267 -18 124 -68 210&#xA;-170 292 -96 77 -154 104 -447 206 l-95 33 -6 50 c-4 28 -14 63 -24 78 -16 23&#xA;-16 35 -7 92 8 51 18 73 47 106 52 61 83 132 105 238 10 51 21 94 23 97 3 2&#xA;15 -10 27 -26 24 -34 59 -41 80 -16 9 11 10 31 5 73 -5 31 -9 91 -10 132 -2&#xA;114 -15 182 -35 187 -15 4 -18 19 -17 111 0 59 -4 143 -8 187 -5 44 -9 87 -10&#xA;95 0 8 -4 21 -8 28 -5 6 -6 16 -3 20 3 5 -2 20 -12 33 -9 13 -17 29 -18 36 -1&#xA;7 -12 26 -23 42 -12 16 -21 34 -21 41 0 10 -55 96 -71 110 -3 3 -11 21 -19 39&#xA;-17 41 -67 101 -85 101 -7 0 -18 7 -25 15 -7 8 -19 15 -27 15 -8 0 -30 11 -50&#xA;25 -27 18 -40 22 -49 14 -7 -6 -19 -7 -25 -3 -9 5 -10 2 -6 -9 3 -10 3 -17 -2&#xA;-17 -14 0 -31 26 -23 36 4 4 0 3 -9 -4 -13 -10 -19 -9 -29 3 -16 19 -26 19&#xA;-34 0z m65 -35 c21 -12 26 -40 7 -40 -7 0 -18 11 -25 25 -12 28 -10 30 18 15z&#xA;m421 -445 c2 -19 1 -32 -3 -27 -10 10 -19 73 -9 67 4 -3 10 -21 12 -40z m4&#xA;-64 c-4 -5 -1 -11 6 -13 7 -3 8 -7 2 -11 -5 -3 -16 -1 -24 4 -13 8 -13 10 0&#xA;19 19 12 23 12 16 1z m14 -66 c0 -36 1 -39 11 -52 6 -7 6 -13 0 -17 -5 -3 -15&#xA;9 -21 27 -20 52 -21 67 -5 67 9 0 15 -9 15 -25z m76 -456 c2 -61 5 -113 7&#xA;-115 2 -2 1 -19 -1 -39 -4 -34 -25 -48 -35 -22 -4 8 -6 8 -6 0 -1 -6 10 -21&#xA;24 -31 17 -14 22 -23 14 -27 -6 -4 -25 6 -42 23 l-31 31 13 78 c8 43 13 104&#xA;12 136 -2 62 14 106 31 89 6 -6 12 -61 14 -123z m-681 -679 c71 -40 88 -45&#xA;155 -48 88 -4 145 16 208 72 22 20 42 36 46 36 6 0 0 -48 -10 -82 -3 -10 0&#xA;-18 7 -18 9 0 10 -18 5 -66 -5 -51 -17 -86 -51 -150 -24 -46 -52 -94 -62 -107&#xA;l-17 -24 -45 35 c-25 19 -71 47 -101 62 -30 15 -107 62 -170 105 -212 143&#xA;-239 174 -220 245 6 22 15 40 20 40 9 0 6 51 -7 95 -3 11 32 -18 78 -65 58&#xA;-59 109 -99 164 -130z"/>
    <path d="M2054 1636 c-8 -22 -2 -27 16 -16 12 7 12 12 3 21 -10 10 -14 9 -19&#xA;-5z"/>
    <path d="M1385 2822 c-2 -3 -2 -16 1 -29 4 -13 1 -30 -6 -38 -8 -9 -9 -29 -5&#xA;-56 5 -29 10 -38 16 -28 7 11 9 10 9 -5 0 -11 3 -17 6 -14 9 9 -7 78 -17 72&#xA;-5 -3 -9 -1 -9 5 0 5 5 13 10 16 6 3 10 16 10 28 1 22 1 22 15 3 11 -15 12&#xA;-22 3 -27 -8 -5 -7 -11 4 -23 14 -13 15 -10 14 32 -1 37 2 46 14 44 12 -3 13&#xA;-1 2 9 -12 13 -57 20 -67 11z"/>
    <path d="M1360 2815 c-2 -5 -2 -14 -1 -19 1 -5 -4 -4 -12 2 -10 9 -18 8 -34&#xA;-3 -11 -8 -23 -11 -27 -8 -3 3 -6 1 -6 -5 0 -7 -8 -12 -17 -12 -11 0 -26 -18&#xA;-40 -48 -12 -26 -48 -87 -79 -137 -112 -180 -143 -258 -153 -393 -12 -149 -3&#xA;-253 28 -318 10 -22 23 -79 30 -127 12 -86 27 -144 36 -135 2 2 0 22 -6 44 -7&#xA;21 -13 109 -14 194 -3 186 -4 192 -15 165 -12 -28 -12 -43 1 -25 8 12 9 10 5&#xA;-10 -3 -14 -6 -41 -7 -60 -1 -24 -4 -14 -11 30 -12 82 -12 130 -2 154 5 14 4&#xA;17 -4 12 -17 -11 -15 10 4 28 8 9 11 16 6 16 -11 0 -10 53 2 61 4 4 3 16 -3&#xA;27 -7 13 -7 23 -2 27 5 3 15 31 21 62 7 33 15 51 20 44 8 -14 23 10 25 39 0 8&#xA;6 14 13 12 7 -1 12 7 12 19 0 13 -4 18 -12 13 -9 -5 -9 -3 1 9 7 9 17 14 22&#xA;11 9 -5 16 7 24 38 10 40 19 58 30 58 11 0 27 42 29 79 1 12 26 28 47 30 4 1&#xA;10 -15 13 -34 4 -19 11 -35 16 -35 4 0 4 16 -2 36 -5 21 -8 48 -5 60 3 15 -1&#xA;24 -9 24 -7 0 -16 5 -20 12 -4 7 -3 8 5 4 6 -4 23 0 36 8 14 9 25 12 25 6 0&#xA;-5 -4 -10 -10 -10 -13 0 -13 -37 0 -45 5 -3 7 0 4 9 -3 8 1 25 10 38 15 21 16&#xA;20 13 -30 -3 -47 -17 -88 -17 -49 0 10 -5 17 -11 17 -5 0 -7 -5 -3 -11 4 -6&#xA;17 -53 30 -103 20 -78 21 -92 9 -99 -8 -4 -15 -16 -15 -25 0 -10 3 -13 8 -7 4&#xA;6 18 11 32 12 47 4 65 11 61 24 -12 44 -10 50 6 20 22 -41 39 -49 46 -21 3 11&#xA;1 20 -4 20 -5 0 -9 -6 -9 -12 0 -7 -10 2 -21 19 -23 35 -39 35 -39 0 0 -15 -3&#xA;-18 -8 -9 -5 7 -15 10 -23 7 -12 -4 -19 11 -33 69 -17 73 -14 114 6 85 6 -10&#xA;7 -7 3 10 -10 34 -8 93 3 100 5 3 6 15 1 26 -4 11 -8 16 -9 10z m-260 -406 c0&#xA;-5 -7 -9 -15 -9 -9 0 -12 6 -9 15 6 15 24 11 24 -6z"/>
    <path d="M1450 2758 c0 -10 5 -18 10 -18 6 0 10 -9 10 -21 0 -11 4 -18 9 -15&#xA;5 4 12 0 14 -6 3 -7 6 2 6 20 1 23 -3 32 -11 29 -7 -2 -18 3 -25 12 -11 14&#xA;-12 14 -13 -1z"/>
    <path d="M1733 2655 c0 -22 2 -30 4 -17 2 12 2 30 0 40 -3 9 -5 -1 -4 -23z"/>
    <path d="M1241 2637 c-1 -36 39 -177 51 -177 11 0 10 18 -2 25 -6 4 -9 12 -8&#xA;18 2 7 -2 26 -9 42 -6 17 -15 50 -21 75 -7 35 -10 39 -11 17z"/>
    <path d="M1395 2608 c4 -18 11 -37 17 -43 6 -6 7 1 2 20 -4 16 -7 35 -7 42 0&#xA;7 -4 13 -9 13 -5 0 -7 -15 -3 -32z"/>
    <path d="M1473 2590 c-1 -52 4 -61 12 -20 2 12 10 29 17 39 7 9 8 13 4 9 -5&#xA;-4 -14 -1 -21 8 -9 13 -11 6 -12 -36z"/>
    <path d="M1587 2633 c-4 -3 -7 -16 -6 -27 0 -19 1 -19 10 3 10 24 8 36 -4 24z"/>
    <path d="M1377 2572 c7 -50 15 -56 11 -8 -1 20 -5 39 -9 42 -4 2 -5 -13 -2&#xA;-34z"/>
    <path d="M1520 2588 c0 -16 5 -28 10 -28 13 0 13 20 0 40 -8 12 -10 9 -10 -12z"/>
    <path d="M1281 2593 c-1 -18 19 -67 25 -61 3 3 -2 21 -10 39 -8 19 -15 29 -15&#xA;22z"/>
    <path d="M1737 2530 c-6 -16 -15 -30 -20 -30 -5 0 -7 7 -4 15 4 8 2 17 -4 20&#xA;-5 4 -8 1 -7 -6 2 -9 -9 -13 -32 -14 -19 0 -41 -4 -47 -8 -7 -5 -13 -5 -14 0&#xA;0 4 -4 -1 -8 -12 -12 -28 -3 -38 15 -20 9 8 21 12 27 8 18 -11 58 -15 84 -8&#xA;19 4 22 10 17 29 -3 15 1 29 11 40 10 9 12 16 5 16 -7 0 -17 -13 -23 -30z"/>
    <path d="M1311 2514 c-1 -15 24 -36 32 -27 4 3 7 13 7 21 0 11 -3 12 -14 3&#xA;-11 -9 -15 -9 -19 1 -3 8 -6 8 -6 2z"/>
    <path d="M1550 2505 c0 -11 5 -27 10 -35 9 -13 11 -13 20 0 12 19 13 33 1 25&#xA;-6 -3 -14 3 -20 12 -10 17 -10 17 -11 -2z"/>
    <path d="M1209 2501 c11 -7 11 -10 0 -17 -8 -5 -21 -9 -29 -11 -8 -1 -16 -7&#xA;-18 -13 -2 -5 -8 -7 -14 -4 -6 4 -9 1 -6 -7 3 -8 -6 -27 -18 -42 -13 -16 -24&#xA;-35 -24 -44 0 -9 -6 -13 -15 -9 -11 4 -15 -2 -16 -22 -1 -15 -1 -31 0 -36 1&#xA;-5 -4 -13 -10 -17 -10 -6 -10 -16 0 -48 6 -23 9 -46 6 -51 -3 -6 -1 -10 4 -10&#xA;6 0 11 7 11 16 0 8 3 13 8 11 4 -3 8 18 10 47 2 58 31 132 71 185 20 26 76 38&#xA;98 19 12 -10 12 -7 1 16 -7 16 -14 23 -16 17 -2 -6 -11 -11 -20 -11 -15 0 -15&#xA;2 -2 10 13 9 13 11 0 20 -8 5 -19 10 -25 10 -5 0 -4 -4 4 -9z"/>
    <path d="M1765 2497 c-10 -24 -1 -31 41 -32 32 -2 33 -1 17 17 -11 13 -20 15&#xA;-29 7 -9 -7 -13 -5 -17 8 -4 17 -4 17 -12 0z"/>
    <path d="M1306 2476 c3 -9 11 -16 16 -16 13 0 5 23 -10 28 -7 2 -10 -2 -6 -12z"/>
    <path d="M1509 2474 c6 -12 7 -24 4 -28 -3 -3 -1 -6 5 -6 16 0 15 12 -4 36&#xA;-15 18 -15 18 -5 -2z"/>
    <path d="M1090 2150 c0 -11 -5 -20 -11 -20 -6 0 -9 -7 -6 -15 4 -8 2 -17 -3&#xA;-20 -5 -3 -6 -13 -3 -21 3 -9 0 -20 -8 -25 -10 -6 -10 -9 -2 -9 13 0 40 56 50&#xA;103 3 17 1 27 -6 27 -6 0 -11 -9 -11 -20z"/>
    <path d="M1241 2060 c-49 -7 -101 -54 -101 -90 0 -25 1 -25 31 1 l24 21 -25&#xA;-7 c-19 -6 -22 -5 -14 5 7 6 27 13 45 15 31 2 59 -2 172 -25 37 -7 52 5 21 17&#xA;-12 4 -13 8 -3 14 7 4 19 3 25 -2 16 -13 67 -22 60 -10 -3 5 2 12 11 15 15 6&#xA;15 8 3 16 -19 12 -33 13 -25 1 3 -6 -6 -7 -22 -2 -16 4 -35 6 -43 3 -9 -2 -6&#xA;2 5 11 19 14 16 15 -43 16 -34 0 -66 2 -70 4 -4 2 -27 0 -51 -3z m124 -20 c3&#xA;-5 1 -10 -5 -10 -6 0 -8 -4 -5 -10 3 -5 1 -10 -5 -10 -7 0 -10 6 -7 14 4 10&#xA;-2 16 -16 19 -19 4 -18 4 5 6 15 0 30 -3 33 -9z m-128 -16 c-16 -8 -34 -13&#xA;-40 -11 -7 3 -1 9 13 15 38 16 59 13 27 -4z"/>
    <path d="M1799 2059 c-8 -5 -22 -6 -32 -3 -10 3 -36 2 -59 -1 -38 -7 -40 -8&#xA;-21 -19 11 -6 18 -16 16 -22 -2 -6 11 -9 34 -8 l38 3 -35 -8 c-26 -5 -38 -3&#xA;-47 8 -14 16 -53 23 -53 9 0 -5 7 -11 15 -14 8 -4 12 -11 8 -18 -5 -8 -3 -8 8&#xA;1 11 9 18 8 32 -2 19 -14 78 -4 104 17 7 6 34 8 59 4 30 -3 44 -2 38 4 -6 6&#xA;-22 11 -36 12 -15 1 -24 6 -22 10 3 4 0 8 -7 8 -7 0 -10 3 -7 6 4 3 16 1 27&#xA;-6 16 -8 21 -8 21 2 0 10 2 10 9 0 4 -7 14 -14 22 -16 19 -3 57 -25 44 -26 -6&#xA;0 -16 5 -23 12 -9 9 -12 9 -12 -3 0 -14 29 -49 41 -49 14 0 5 48 -13 67 -34&#xA;36 -115 53 -149 32z"/>
    <path d="M1628 1948 c9 -9 15 -9 24 0 9 9 7 12 -12 12 -19 0 -21 -3 -12 -12z"/>
    <path d="M1704 1938 l-19 -21 28 18 c28 18 33 25 19 25 -5 0 -17 -10 -28 -22z"/>
    <path d="M1140 1940 c-11 -7 -11 -10 -2 -10 7 0 10 -4 7 -10 -3 -5 1 -10 9&#xA;-10 8 0 18 5 21 10 3 6 1 10 -5 10 -6 0 -8 5 -5 10 8 13 -5 13 -25 0z"/>
    <path d="M1400 1942 c0 -10 49 -46 55 -40 1 2 -11 13 -26 26 -16 13 -29 19&#xA;-29 14z"/>
    <path d="M1245 1912 c-46 -29 -59 -48 -39 -56 9 -4 14 -9 11 -13 -4 -3 1 -12&#xA;11 -19 13 -9 19 -9 24 -1 6 9 8 9 8 0 0 -7 7 -10 15 -7 19 8 20 24 0 24 -8 0&#xA;-25 5 -39 11 l-25 12 36 28 c20 16 36 29 37 29 1 0 2 -12 1 -26 0 -53 65 -58&#xA;73 -5 4 25 6 26 37 5 31 -20 31 -30 1 -38 -14 -3 -32 -13 -40 -22 -10 -10 -16&#xA;-11 -16 -3 0 8 -3 9 -13 0 -8 -6 -18 -7 -23 -3 -4 4 -3 0 4 -9 13 -17 52 -15&#xA;52 3 0 5 5 6 12 2 7 -5 8 -3 3 6 -6 10 -3 12 13 8 12 -4 20 -2 17 3 -3 4 6 11&#xA;20 15 34 8 28 23 -19 47 -55 29 -124 33 -161 9z"/>
    <path d="M1733 1909 c-27 -13 -40 -25 -36 -33 4 -6 -1 -5 -10 3 -15 11 -17 11&#xA;-17 -2 0 -16 56 -35 67 -23 4 3 -1 6 -10 6 -22 0 -22 14 -1 31 15 12 19 11 32&#xA;-9 19 -29 68 -30 77 -2 3 11 3 24 0 30 -3 5 -1 10 5 10 10 0 24 -14 54 -55 9&#xA;-12 15 -15 16 -7 0 7 5 10 10 7 26 -16 5 13 -27 38 -45 34 -100 36 -160 6z"/>
    <path d="M1845 1843 c-27 -7 -39 -19 -26 -27 6 -4 11 -2 11 4 0 7 7 10 15 6&#xA;18 -6 45 2 45 15 0 9 -12 10 -45 2z"/>
    <path d="M1019 1743 c5 -18 8 -33 6 -35 -2 -2 -6 -26 -9 -53 -5 -43 -3 -52 14&#xA;-63 11 -7 20 -8 20 -3 0 6 -4 12 -9 15 -5 3 -9 38 -8 76 0 41 -5 76 -11 82 -9&#xA;9 -9 4 -3 -19z"/>
    <path d="M1460 1588 c0 -13 20 -19 40 -13 31 10 24 24 -10 22 -16 -1 -30 -5&#xA;-30 -9z"/>
    <path d="M1607 1589 c-10 -6 -30 -8 -45 -5 -26 6 -26 6 -7 -9 11 -9 29 -15 40&#xA;-13 11 1 26 -1 33 -5 7 -5 12 -3 12 6 0 10 7 13 20 10 24 -6 27 12 4 21 -22 8&#xA;-36 7 -57 -5z"/>
    <path d="M1322 1513 c-22 -32 -33 -81 -21 -89 5 -3 9 6 9 20 0 33 10 57 21 50&#xA;5 -3 8 0 7 8 -2 7 3 12 10 11 6 -2 12 4 12 12 0 23 -17 18 -38 -12z"/>
    <path d="M1784 1510 c0 -12 6 -15 19 -12 10 2 17 1 16 -4 -1 -5 -1 -11 1 -14&#xA;1 -3 4 -16 6 -29 7 -38 14 -38 14 0 0 38 -19 71 -41 75 -8 1 -15 -6 -15 -16z"/>
    <path d="M1557 1513 c-4 -3 -7 -15 -7 -26 0 -25 13 -14 17 13 3 21 1 24 -10&#xA;13z"/>
    <path d="M1445 1431 c-11 -5 -35 -6 -54 -3 -22 3 -32 1 -28 -5 17 -27 117 -19&#xA;117 9 0 10 -9 9 -35 -1z"/>
    <path d="M1578 1426 c-16 -5 -28 -14 -28 -18 0 -9 169 -5 205 5 11 3 26 6 34&#xA;6 8 1 11 4 7 9 -9 8 -109 10 -116 1 -11 -13 -69 -18 -72 -6 -2 10 -10 10 -30&#xA;3z"/>
    <path d="M1489 1409 c-10 -6 -7 -9 14 -9 29 0 35 5 14 13 -8 3 -20 1 -28 -4z"/>
    <path d="M1484 1332 c-6 -4 -4 -13 8 -24 10 -10 18 -14 18 -8 0 5 16 7 35 5&#xA;24 -3 35 -1 35 8 0 7 3 8 8 2 8 -12 47 -13 58 -3 4 4 13 3 19 -2 9 -7 17 -5&#xA;26 7 13 16 12 17 -3 5 -12 -9 -18 -10 -23 -2 -4 7 -15 10 -25 7 -10 -2 -23 -1&#xA;-30 3 -6 4 -29 4 -51 0 -22 -4 -42 -3 -45 1 -6 11 -15 11 -30 1z"/>
    <path d="M1077 933 c-8 -12 16 -36 26 -26 10 10 8 25 -2 19 -5 -4 -11 -1 -13&#xA;6 -3 8 -6 9 -11 1z"/>
    <path d="M1016 884 c-3 -9 -1 -12 4 -9 6 3 10 -1 10 -9 0 -9 3 -15 8 -15 21 4&#xA;22 -3 1 -21 -13 -10 -19 -19 -13 -20 6 0 18 8 27 18 14 16 13 19 -8 44 -18 21&#xA;-24 24 -29 12z"/>
    <path d="M1050 806 c-14 -8 -124 -46 -245 -86 -372 -122 -396 -133 -495 -227&#xA;l-65 -62 45 -43 c24 -24 34 -31 21 -16 -13 14 -20 31 -17 36 3 6 -1 13 -10 16&#xA;-10 4 -13 2 -8 -6 4 -7 3 -8 -5 -4 -6 4 -9 12 -5 17 3 5 10 6 16 3 7 -5 9 -2&#xA;5 8 -6 18 88 104 111 102 7 -1 11 1 7 4 -9 10 119 68 213 97 48 15 103 33 123&#xA;40 28 11 39 11 49 2 10 -9 11 -9 6 1 -6 11 5 17 27 13 4 0 7 3 7 9 0 5 33 19&#xA;73 30 39 12 89 28 110 35 20 8 37 11 37 7 0 -4 5 1 11 10 9 16 28 0 142 -116&#xA;149 -150 206 -214 199 -221 -3 -3 5 -5 17 -5 19 0 4 21 -87 118 -106 113 -246&#xA;252 -254 252 -1 -1 -14 -7 -28 -14z"/>
    <path d="M1915 795 c17 -8 37 -14 45 -14 8 0 -1 7 -20 14 -46 18 -64 17 -25 0z"/>
    <path d="M813 768 c-2 -5 -12 -8 -22 -8 -22 0 -95 -29 -89 -36 7 -6 112 28&#xA;116 38 2 5 8 6 13 3 5 -4 17 -2 26 4 14 7 12 9 -11 8 -15 -1 -30 -5 -33 -9z"/>
    <path d="M1995 770 c11 -5 27 -9 35 -9 9 0 8 4 -5 9 -11 5 -27 9 -35 9 -9 0&#xA;-8 -4 5 -9z"/>
    <path d="M1275 690 c8 -9 12 -20 8 -25 -5 -4 -3 -5 3 -2 15 9 48 -29 38 -44&#xA;-5 -8 -3 -10 5 -4 7 4 23 -3 39 -16 14 -13 21 -17 14 -8 -6 9 -8 19 -4 23 4 4&#xA;0 6 -8 4 -8 -1 -14 2 -15 8 0 20 -59 81 -78 81 -15 0 -16 -2 -2 -17z m45 -25&#xA;c19 -19 32 -35 29 -35 -3 0 -20 16 -39 35 -19 19 -32 35 -29 35 3 0 20 -16 39&#xA;-35z"/>
    <path d="M1810 682 c0 -5 12 -19 27 -33 l26 -24 -23 33 c-25 33 -30 38 -30 24z"/>
    <path d="M560 665 c-19 -7 -28 -13 -20 -13 8 0 31 6 50 13 19 7 28 13 20 13&#xA;-8 0 -31 -6 -50 -13z"/>
    <path d="M1435 650 c-3 -5 3 -10 15 -10 12 0 18 5 15 10 -3 6 -10 10 -15 10&#xA;-5 0 -12 -4 -15 -10z"/>
    <path d="M455 628 c-57 -24 -60 -26 -54 -32 2 -3 31 8 64 24 70 33 63 39 -10&#xA;8z"/>
    <path d="M1517 624 c-11 -14 -17 -27 -15 -30 3 -2 14 10 27 26 12 17 18 30 14&#xA;30 -4 0 -16 -12 -26 -26z"/>
    <path d="M1443 611 c4 -29 17 -39 17 -13 0 11 -5 24 -10 27 -6 4 -9 -2 -7 -14z"/>
    <path d="M310 535 c-13 -14 -19 -25 -13 -25 5 0 20 11 33 25 13 14 19 25 13&#xA;25 -5 0 -20 -11 -33 -25z"/>
    <path d="M1395 549 c-5 -7 -4 -10 2 -6 11 7 37 -16 28 -24 -2 -3 7 -6 20 -7&#xA;13 -1 27 4 31 10 5 8 2 9 -11 4 -12 -4 -26 1 -40 14 -17 16 -25 18 -30 9z"/>
    <path d="M137 436 c-4 -9 -2 -16 3 -16 6 0 10 6 11 13 0 6 4 4 8 -6 6 -17 8&#xA;-17 20 -3 8 9 9 16 3 16 -6 0 -17 3 -25 6 -8 3 -17 -2 -20 -10z"/>
    <path d="M1763 383 c-17 -37 -39 -88 -49 -113 -10 -25 -21 -47 -24 -50 -3 -3&#xA;-6 -18 -7 -35 0 -16 -4 -65 -7 -107 -5 -65 -3 -78 9 -78 10 0 15 11 15 35 0&#xA;21 11 52 26 77 15 23 47 82 72 132 38 75 46 101 47 146 0 52 -2 55 -25 58 -23&#xA;3 -29 -5 -57 -65z m64 -3 c2 -22 -1 -40 -6 -40 -5 0 -12 -10 -17 -22 -6 -19&#xA;-8 -16 -11 19 -4 40 9 83 25 83 4 0 8 -18 9 -40z m-57 -99 c0 -52 -4 -72 -17&#xA;-82 -15 -12 -16 -12 -10 4 4 10 7 48 7 83 0 36 4 64 10 64 6 0 10 -30 10 -69z&#xA;m-59 -150 c-8 -22 -9 -19 -10 24 0 42 2 46 10 26 6 -15 6 -34 0 -50z"/>
    <path d="M67 409 c-17 -10 -37 -16 -59 -18 -5 -1 -8 -5 -8 -9 0 -10 30 -9 48&#xA;2 15 9 16 -6 1 -21 -8 -8 -8 -13 0 -18 6 -3 11 -3 10 2 -1 4 3 21 10 37 8 20&#xA;15 25 24 18 6 -5 26 -13 42 -17 17 -5 33 -9 38 -10 4 -2 10 -3 15 -4 17 -3 71&#xA;-59 64 -66 -4 -5 -1 -5 6 -1 14 8 45 -11 37 -23 -2 -4 2 -8 9 -8 9 0 12 11 9&#xA;31 -3 26 -1 28 11 16 8 -8 17 -26 21 -39 6 -18 4 -22 -6 -16 -17 10 17 -31 51&#xA;-61 14 -12 29 -20 34 -17 4 3 2 9 -5 14 -12 7 -11 9 1 10 8 1 18 1 23 0 12 -2&#xA;-17 38 -32 44 -11 4 -10 1 2 -13 15 -16 15 -21 4 -25 -21 -8 -39 7 -31 26 3&#xA;10 1 17 -6 17 -6 0 -8 -5 -5 -10 3 -5 2 -10 -4 -10 -13 0 -23 17 -13 24 14 8&#xA;8 69 -8 74 -12 4 -13 2 -2 -9 22 -24 12 -33 -12 -10 -23 21 -46 15 -31 -9 9&#xA;-14 -8 -13 -23 2 -9 9 -8 16 6 32 17 21 17 21 -6 2 -22 -19 -23 -19 -50 7 -15&#xA;15 -54 36 -86 47 -33 11 -60 20 -60 20 -1 0 -9 -5 -19 -11z"/>
    <path d="M232 391 c-10 -6 -10 -10 3 -21 13 -11 18 -11 28 0 10 10 9 12 -5 7&#xA;-20 -7 -25 9 -5 16 6 3 8 6 2 6 -5 0 -16 -3 -23 -8z"/>
    <path d="M1870 350 c0 -4 7 -27 15 -51 20 -54 11 -93 -45 -214 l-39 -85 28 0&#xA;c16 0 34 7 41 15 10 12 10 15 -1 15 -10 0 -10 3 -1 12 7 7 12 20 12 30 0 10 4&#xA;18 9 18 4 0 7 11 6 25 -2 16 2 25 11 25 18 0 18 -14 -1 -49 -8 -16 -17 -43&#xA;-20 -61 -10 -55 18 -29 43 41 23 61 23 66 8 114 -9 28 -17 66 -18 85 -1 19 -8&#xA;44 -15 56 -7 11 -11 23 -8 26 3 2 -2 5 -10 5 -8 0 -15 -4 -15 -7z"/>
    <path d="M6 185 c-3 -9 -6 -24 -5 -33 0 -9 5 -4 10 12 9 32 6 48 -5 21z"/>
    <path d="M449 156 c14 -14 21 -32 18 -40 -4 -9 -3 -16 1 -16 5 0 14 -24 22&#xA;-53 8 -28 16 -44 18 -34 7 35 -40 152 -66 162 -11 4 -9 -2 7 -19z"/>
    <path d="M1977 122 c9 -20 21 -56 27 -79 7 -30 15 -41 28 -40 19 1 26 17 7 17&#xA;-5 0 -7 4 -4 10 8 13 -42 117 -60 124 -13 4 -12 0 2 -32z"/>
    <path d="M532 91 c4 -13 18 -16 19 -4 0 4 -5 9 -11 12 -7 2 -11 -2 -8 -8z"/>
    <path d="M551 61 c-10 -7 -11 -13 -2 -30 16 -28 20 -27 19 9 -1 17 -1 30 -2&#xA;30 -1 0 -7 -4 -15 -9z"/>
    <path d="M2593 53 c-7 -2 -13 -12 -13 -21 0 -15 -2 -15 -10 -2 -7 11 -9 10 -7&#xA;-9 1 -23 1 -23 18 -2 9 11 19 17 23 14 3 -4 6 1 6 10 0 10 -1 17 -2 16 -2 0&#xA;-9 -3 -15 -6z"/>
  </g>
</svg>